# xmcd
#
# Track frame offsets: 
#        150
#        14107
#        21933
#        29370
#        36885
#        45719
#        53683
#        59807
#        69722
#        83014
#        94254
#        103534
#
# Disc length: 1457 seconds
#
# Revision: 0
# Processed by: cddbd v1.5.2PL0 Copyright (c) Steve Scherf et al.
# Submitted via: ExactAudioCopy v1.0b3
#
DISCID=a405af0c
DTITLE=Moreira da Silva - Mo "Ringo" Eira
DYEAR=1970
DGENRE=Latin-Br-Samba
TTITLE0=O Seqüestro de Ringo
TTITLE1=Rebocador Laurindo
TTITLE2=Garota Genial
TTITLE3=O Conto da Mala
TTITLE4=A Fera de Ouro
TTITLE5=Samba Aristocrático
TTITLE6=Moreira Na Ópera
TTITLE7=Vou Cassar O Seu Mandato
TTITLE8=Só Deus É Capaz
TTITLE9=Na Subida do Morro
TTITLE10=Carne Pra Linguiça
TTITLE11=Paraíso de Malandro
EXTD=
EXTT0=
EXTT1=
EXTT2=
EXTT3=
EXTT4=
EXTT5=
EXTT6=
EXTT7=
EXTT8=
EXTT9=
EXTT10=
EXTT11=
PLAYORDER=
